<mxfile host="app.diagrams.net" modified="2022-05-26T19:36:08.386Z" agent="5.0 (Windows NT 10.0; Win64; x64) AppleWebKit/537.36 (KHTML, like Gecko) Chrome/102.0.5005.61 Safari/537.36" etag="YFp3wfNt2B9RiwBOHp48" version="18.1.3" type="github">
  <diagram id="R2lEEEUBdFMjLlhIrx00" name="Page-1">
    <mxGraphModel dx="2447" dy="1935" grid="1" gridSize="10" guides="1" tooltips="1" connect="1" arrows="1" fold="1" page="1" pageScale="1" pageWidth="850" pageHeight="1100" math="0" shadow="0" extFonts="Permanent Marker^https://fonts.googleapis.com/css?family=Permanent+Marker">
      <root>
        <mxCell id="0" />
        <mxCell id="1" parent="0" />
        <mxCell id="-V91luH7FTuImWQMiuqp-3" value="" style="group;strokeColor=none;" vertex="1" connectable="0" parent="1">
          <mxGeometry x="400" y="290" width="161.88" height="70" as="geometry" />
        </mxCell>
        <mxCell id="-V91luH7FTuImWQMiuqp-2" value="" style="rounded=0;whiteSpace=wrap;html=1;" vertex="1" parent="-V91luH7FTuImWQMiuqp-3">
          <mxGeometry width="161.88" height="70" as="geometry" />
        </mxCell>
        <mxCell id="-V91luH7FTuImWQMiuqp-1" value="&lt;font data-font-src=&quot;https://fonts.googleapis.com/css?family=Open+Sans&quot; face=&quot;Open Sans&quot; style=&quot;font-size: 20px;&quot;&gt;Tickets&lt;/font&gt;" style="rounded=0;whiteSpace=wrap;html=1;" vertex="1" parent="-V91luH7FTuImWQMiuqp-3">
          <mxGeometry x="3.4399999999999977" y="5" width="155" height="60" as="geometry" />
        </mxCell>
        <mxCell id="-V91luH7FTuImWQMiuqp-4" value="Customer" style="rounded=0;whiteSpace=wrap;html=1;fontFamily=Tahoma;fontSize=20;" vertex="1" parent="1">
          <mxGeometry x="40" y="70" width="160" height="60" as="geometry" />
        </mxCell>
        <mxCell id="-V91luH7FTuImWQMiuqp-19" style="rounded=0;orthogonalLoop=1;jettySize=auto;html=1;entryX=0;entryY=0.5;entryDx=0;entryDy=0;fontFamily=Tahoma;fontSize=20;startArrow=classic;startFill=1;" edge="1" parent="1" source="-V91luH7FTuImWQMiuqp-5" target="-V91luH7FTuImWQMiuqp-18">
          <mxGeometry relative="1" as="geometry" />
        </mxCell>
        <mxCell id="-V91luH7FTuImWQMiuqp-5" value="Admin" style="rounded=0;whiteSpace=wrap;html=1;fontFamily=Tahoma;fontSize=20;" vertex="1" parent="1">
          <mxGeometry x="-70" y="565" width="120" height="60" as="geometry" />
        </mxCell>
        <mxCell id="-V91luH7FTuImWQMiuqp-6" value="Movie" style="rounded=0;whiteSpace=wrap;html=1;fontFamily=Tahoma;fontSize=20;" vertex="1" parent="1">
          <mxGeometry x="830" y="120" width="120" height="60" as="geometry" />
        </mxCell>
        <mxCell id="-V91luH7FTuImWQMiuqp-7" value="Show" style="rounded=0;whiteSpace=wrap;html=1;fontFamily=Tahoma;fontSize=20;" vertex="1" parent="1">
          <mxGeometry x="920" y="460" width="120" height="60" as="geometry" />
        </mxCell>
        <mxCell id="-V91luH7FTuImWQMiuqp-11" style="rounded=0;orthogonalLoop=1;jettySize=auto;html=1;entryX=1;entryY=0.5;entryDx=0;entryDy=0;fontFamily=Tahoma;fontSize=20;" edge="1" parent="1" source="-V91luH7FTuImWQMiuqp-8" target="-V91luH7FTuImWQMiuqp-4">
          <mxGeometry relative="1" as="geometry" />
        </mxCell>
        <mxCell id="-V91luH7FTuImWQMiuqp-12" style="rounded=0;orthogonalLoop=1;jettySize=auto;html=1;entryX=0;entryY=0.25;entryDx=0;entryDy=0;fontFamily=Tahoma;fontSize=20;startArrow=classic;startFill=1;" edge="1" parent="1" source="-V91luH7FTuImWQMiuqp-8" target="-V91luH7FTuImWQMiuqp-2">
          <mxGeometry relative="1" as="geometry" />
        </mxCell>
        <mxCell id="-V91luH7FTuImWQMiuqp-8" value="Buys" style="rhombus;whiteSpace=wrap;html=1;fontFamily=Tahoma;fontSize=20;" vertex="1" parent="1">
          <mxGeometry x="160" y="170" width="170" height="80" as="geometry" />
        </mxCell>
        <mxCell id="-V91luH7FTuImWQMiuqp-16" style="rounded=0;orthogonalLoop=1;jettySize=auto;html=1;entryX=0;entryY=0.5;entryDx=0;entryDy=0;fontFamily=Tahoma;fontSize=20;startArrow=classic;startFill=1;" edge="1" parent="1" source="-V91luH7FTuImWQMiuqp-13" target="-V91luH7FTuImWQMiuqp-14">
          <mxGeometry relative="1" as="geometry" />
        </mxCell>
        <mxCell id="-V91luH7FTuImWQMiuqp-73" style="edgeStyle=none;rounded=0;orthogonalLoop=1;jettySize=auto;html=1;exitX=0.25;exitY=1;exitDx=0;exitDy=0;entryX=0.627;entryY=0.034;entryDx=0;entryDy=0;entryPerimeter=0;fontFamily=Open Sans;fontSource=https%3A%2F%2Ffonts.googleapis.com%2Fcss%3Ffamily%3DOpen%2BSans;fontSize=15;startArrow=none;startFill=0;endArrow=none;endFill=0;" edge="1" parent="1" source="-V91luH7FTuImWQMiuqp-13" target="-V91luH7FTuImWQMiuqp-65">
          <mxGeometry relative="1" as="geometry" />
        </mxCell>
        <mxCell id="-V91luH7FTuImWQMiuqp-74" style="edgeStyle=none;rounded=0;orthogonalLoop=1;jettySize=auto;html=1;exitX=0.75;exitY=1;exitDx=0;exitDy=0;fontFamily=Open Sans;fontSource=https%3A%2F%2Ffonts.googleapis.com%2Fcss%3Ffamily%3DOpen%2BSans;fontSize=15;startArrow=none;startFill=0;endArrow=none;endFill=0;" edge="1" parent="1" source="-V91luH7FTuImWQMiuqp-13" target="-V91luH7FTuImWQMiuqp-66">
          <mxGeometry relative="1" as="geometry" />
        </mxCell>
        <mxCell id="-V91luH7FTuImWQMiuqp-75" style="edgeStyle=none;rounded=0;orthogonalLoop=1;jettySize=auto;html=1;exitX=1;exitY=0.75;exitDx=0;exitDy=0;entryX=0.075;entryY=0.233;entryDx=0;entryDy=0;entryPerimeter=0;fontFamily=Open Sans;fontSource=https%3A%2F%2Ffonts.googleapis.com%2Fcss%3Ffamily%3DOpen%2BSans;fontSize=15;startArrow=none;startFill=0;endArrow=none;endFill=0;" edge="1" parent="1" source="-V91luH7FTuImWQMiuqp-13" target="-V91luH7FTuImWQMiuqp-71">
          <mxGeometry relative="1" as="geometry" />
        </mxCell>
        <mxCell id="-V91luH7FTuImWQMiuqp-77" style="edgeStyle=none;rounded=0;orthogonalLoop=1;jettySize=auto;html=1;entryX=1;entryY=0.5;entryDx=0;entryDy=0;fontFamily=Open Sans;fontSource=https%3A%2F%2Ffonts.googleapis.com%2Fcss%3Ffamily%3DOpen%2BSans;fontSize=15;startArrow=none;startFill=0;endArrow=none;endFill=0;" edge="1" parent="1" source="-V91luH7FTuImWQMiuqp-13" target="-V91luH7FTuImWQMiuqp-58">
          <mxGeometry relative="1" as="geometry" />
        </mxCell>
        <mxCell id="-V91luH7FTuImWQMiuqp-13" value="Theatre" style="rounded=0;whiteSpace=wrap;html=1;fontFamily=Tahoma;fontSize=20;" vertex="1" parent="1">
          <mxGeometry x="425" y="660" width="120" height="60" as="geometry" />
        </mxCell>
        <mxCell id="-V91luH7FTuImWQMiuqp-17" style="rounded=0;orthogonalLoop=1;jettySize=auto;html=1;entryX=0.56;entryY=1.023;entryDx=0;entryDy=0;entryPerimeter=0;fontFamily=Tahoma;fontSize=20;startArrow=classic;startFill=1;" edge="1" parent="1" source="-V91luH7FTuImWQMiuqp-14" target="-V91luH7FTuImWQMiuqp-7">
          <mxGeometry relative="1" as="geometry" />
        </mxCell>
        <mxCell id="-V91luH7FTuImWQMiuqp-14" value="Runs in" style="rhombus;whiteSpace=wrap;html=1;fontFamily=Tahoma;fontSize=20;" vertex="1" parent="1">
          <mxGeometry x="710" y="575" width="150" height="70" as="geometry" />
        </mxCell>
        <mxCell id="-V91luH7FTuImWQMiuqp-20" style="rounded=0;orthogonalLoop=1;jettySize=auto;html=1;fontFamily=Tahoma;fontSize=20;" edge="1" parent="1" source="-V91luH7FTuImWQMiuqp-18">
          <mxGeometry relative="1" as="geometry">
            <mxPoint x="460" y="360" as="targetPoint" />
          </mxGeometry>
        </mxCell>
        <mxCell id="-V91luH7FTuImWQMiuqp-18" value="Assigns" style="rhombus;whiteSpace=wrap;html=1;fontFamily=Tahoma;fontSize=20;" vertex="1" parent="1">
          <mxGeometry x="130" y="450" width="140" height="80" as="geometry" />
        </mxCell>
        <mxCell id="-V91luH7FTuImWQMiuqp-22" style="rounded=0;orthogonalLoop=1;jettySize=auto;html=1;fontFamily=Tahoma;fontSize=20;startArrow=classic;startFill=1;entryX=0.667;entryY=0.025;entryDx=0;entryDy=0;entryPerimeter=0;" edge="1" parent="1" source="-V91luH7FTuImWQMiuqp-21" target="-V91luH7FTuImWQMiuqp-7">
          <mxGeometry relative="1" as="geometry">
            <mxPoint x="890" y="410" as="targetPoint" />
          </mxGeometry>
        </mxCell>
        <mxCell id="-V91luH7FTuImWQMiuqp-23" style="rounded=0;orthogonalLoop=1;jettySize=auto;html=1;entryX=0.75;entryY=1;entryDx=0;entryDy=0;fontFamily=Tahoma;fontSize=20;exitX=0.5;exitY=0;exitDx=0;exitDy=0;startArrow=classic;startFill=1;" edge="1" parent="1" source="-V91luH7FTuImWQMiuqp-21" target="-V91luH7FTuImWQMiuqp-6">
          <mxGeometry relative="1" as="geometry" />
        </mxCell>
        <mxCell id="-V91luH7FTuImWQMiuqp-21" value="Runs" style="rhombus;whiteSpace=wrap;html=1;fontFamily=Tahoma;fontSize=20;" vertex="1" parent="1">
          <mxGeometry x="1080" y="315" width="80" height="80" as="geometry" />
        </mxCell>
        <mxCell id="-V91luH7FTuImWQMiuqp-25" style="rounded=0;orthogonalLoop=1;jettySize=auto;html=1;entryX=1;entryY=0.75;entryDx=0;entryDy=0;fontFamily=Tahoma;fontSize=20;startArrow=classic;startFill=1;" edge="1" parent="1" source="-V91luH7FTuImWQMiuqp-24" target="-V91luH7FTuImWQMiuqp-1">
          <mxGeometry relative="1" as="geometry" />
        </mxCell>
        <mxCell id="-V91luH7FTuImWQMiuqp-26" style="rounded=0;orthogonalLoop=1;jettySize=auto;html=1;entryX=0;entryY=0.5;entryDx=0;entryDy=0;fontFamily=Tahoma;fontSize=20;startArrow=classic;startFill=1;" edge="1" parent="1" source="-V91luH7FTuImWQMiuqp-24" target="-V91luH7FTuImWQMiuqp-7">
          <mxGeometry relative="1" as="geometry" />
        </mxCell>
        <mxCell id="-V91luH7FTuImWQMiuqp-24" value="Booked" style="rhombus;whiteSpace=wrap;html=1;fontFamily=Tahoma;fontSize=20;" vertex="1" parent="1">
          <mxGeometry x="700" y="337.5" width="140" height="80" as="geometry" />
        </mxCell>
        <mxCell id="-V91luH7FTuImWQMiuqp-40" style="edgeStyle=none;rounded=0;orthogonalLoop=1;jettySize=auto;html=1;exitX=1;exitY=0.5;exitDx=0;exitDy=0;entryX=0.144;entryY=1.058;entryDx=0;entryDy=0;entryPerimeter=0;fontFamily=Open Sans;fontSource=https%3A%2F%2Ffonts.googleapis.com%2Fcss%3Ffamily%3DOpen%2BSans;fontSize=15;startArrow=none;startFill=0;endArrow=none;endFill=0;" edge="1" parent="1" source="-V91luH7FTuImWQMiuqp-27" target="-V91luH7FTuImWQMiuqp-4">
          <mxGeometry relative="1" as="geometry" />
        </mxCell>
        <mxCell id="-V91luH7FTuImWQMiuqp-27" value="&lt;font data-font-src=&quot;https://fonts.googleapis.com/css?family=Open+Sans&quot; face=&quot;Open Sans&quot; style=&quot;font-size: 15px;&quot;&gt;username&lt;/font&gt;" style="ellipse;whiteSpace=wrap;html=1;fontFamily=Tahoma;fontSize=20;fontStyle=4" vertex="1" parent="1">
          <mxGeometry x="-110" y="170" width="130" height="40" as="geometry" />
        </mxCell>
        <mxCell id="-V91luH7FTuImWQMiuqp-39" style="rounded=0;orthogonalLoop=1;jettySize=auto;html=1;exitX=1;exitY=0.5;exitDx=0;exitDy=0;entryX=0;entryY=0.5;entryDx=0;entryDy=0;fontFamily=Open Sans;fontSource=https%3A%2F%2Ffonts.googleapis.com%2Fcss%3Ffamily%3DOpen%2BSans;fontSize=15;startArrow=none;startFill=0;endArrow=none;endFill=0;" edge="1" parent="1" source="-V91luH7FTuImWQMiuqp-28" target="-V91luH7FTuImWQMiuqp-4">
          <mxGeometry relative="1" as="geometry" />
        </mxCell>
        <mxCell id="-V91luH7FTuImWQMiuqp-28" value="&lt;font data-font-src=&quot;https://fonts.googleapis.com/css?family=Open+Sans&quot; face=&quot;Open Sans&quot; style=&quot;font-size: 15px;&quot;&gt;email address&lt;/font&gt;" style="ellipse;whiteSpace=wrap;html=1;fontFamily=Tahoma;fontSize=20;fontStyle=0" vertex="1" parent="1">
          <mxGeometry x="-160" y="80" width="130" height="50" as="geometry" />
        </mxCell>
        <mxCell id="-V91luH7FTuImWQMiuqp-36" style="rounded=0;orthogonalLoop=1;jettySize=auto;html=1;exitX=0;exitY=0;exitDx=0;exitDy=0;entryX=1;entryY=1;entryDx=0;entryDy=0;fontFamily=Open Sans;fontSource=https%3A%2F%2Ffonts.googleapis.com%2Fcss%3Ffamily%3DOpen%2BSans;fontSize=15;endArrow=none;endFill=0;" edge="1" parent="1" source="-V91luH7FTuImWQMiuqp-29" target="-V91luH7FTuImWQMiuqp-31">
          <mxGeometry relative="1" as="geometry" />
        </mxCell>
        <mxCell id="-V91luH7FTuImWQMiuqp-37" style="rounded=0;orthogonalLoop=1;jettySize=auto;html=1;exitX=0.5;exitY=0;exitDx=0;exitDy=0;entryX=0.61;entryY=1.037;entryDx=0;entryDy=0;entryPerimeter=0;fontFamily=Open Sans;fontSource=https%3A%2F%2Ffonts.googleapis.com%2Fcss%3Ffamily%3DOpen%2BSans;fontSize=15;endArrow=none;endFill=0;" edge="1" parent="1" source="-V91luH7FTuImWQMiuqp-29" target="-V91luH7FTuImWQMiuqp-33">
          <mxGeometry relative="1" as="geometry" />
        </mxCell>
        <mxCell id="-V91luH7FTuImWQMiuqp-38" style="rounded=0;orthogonalLoop=1;jettySize=auto;html=1;exitX=1;exitY=0;exitDx=0;exitDy=0;entryX=0.5;entryY=1;entryDx=0;entryDy=0;fontFamily=Open Sans;fontSource=https%3A%2F%2Ffonts.googleapis.com%2Fcss%3Ffamily%3DOpen%2BSans;fontSize=15;endArrow=none;endFill=0;" edge="1" parent="1" source="-V91luH7FTuImWQMiuqp-29" target="-V91luH7FTuImWQMiuqp-34">
          <mxGeometry relative="1" as="geometry" />
        </mxCell>
        <mxCell id="-V91luH7FTuImWQMiuqp-41" style="edgeStyle=none;rounded=0;orthogonalLoop=1;jettySize=auto;html=1;exitX=1;exitY=1;exitDx=0;exitDy=0;fontFamily=Open Sans;fontSource=https%3A%2F%2Ffonts.googleapis.com%2Fcss%3Ffamily%3DOpen%2BSans;fontSize=15;startArrow=none;startFill=0;endArrow=none;endFill=0;" edge="1" parent="1" source="-V91luH7FTuImWQMiuqp-29" target="-V91luH7FTuImWQMiuqp-4">
          <mxGeometry relative="1" as="geometry" />
        </mxCell>
        <mxCell id="-V91luH7FTuImWQMiuqp-29" value="&lt;font data-font-src=&quot;https://fonts.googleapis.com/css?family=Open+Sans&quot; face=&quot;Open Sans&quot; style=&quot;font-size: 15px;&quot;&gt;location&lt;/font&gt;" style="ellipse;whiteSpace=wrap;html=1;fontFamily=Tahoma;fontSize=20;fontStyle=0" vertex="1" parent="1">
          <mxGeometry x="-60" y="-10" width="130" height="50" as="geometry" />
        </mxCell>
        <mxCell id="-V91luH7FTuImWQMiuqp-42" style="edgeStyle=none;rounded=0;orthogonalLoop=1;jettySize=auto;html=1;entryX=0.75;entryY=0;entryDx=0;entryDy=0;fontFamily=Open Sans;fontSource=https%3A%2F%2Ffonts.googleapis.com%2Fcss%3Ffamily%3DOpen%2BSans;fontSize=15;startArrow=none;startFill=0;endArrow=none;endFill=0;" edge="1" parent="1" source="-V91luH7FTuImWQMiuqp-30" target="-V91luH7FTuImWQMiuqp-4">
          <mxGeometry relative="1" as="geometry" />
        </mxCell>
        <mxCell id="-V91luH7FTuImWQMiuqp-30" value="&lt;font data-font-src=&quot;https://fonts.googleapis.com/css?family=Open+Sans&quot; face=&quot;Open Sans&quot; style=&quot;font-size: 15px;&quot;&gt;phone number&lt;/font&gt;" style="ellipse;whiteSpace=wrap;html=1;fontFamily=Tahoma;fontSize=20;fontStyle=0" vertex="1" parent="1">
          <mxGeometry x="120" y="-30" width="130" height="50" as="geometry" />
        </mxCell>
        <mxCell id="-V91luH7FTuImWQMiuqp-31" value="&lt;font data-font-src=&quot;https://fonts.googleapis.com/css?family=Open+Sans&quot; face=&quot;Open Sans&quot; style=&quot;font-size: 15px;&quot;&gt;city&lt;/font&gt;" style="ellipse;whiteSpace=wrap;html=1;fontFamily=Tahoma;fontSize=20;fontStyle=0" vertex="1" parent="1">
          <mxGeometry x="-160" y="-70" width="100" height="40" as="geometry" />
        </mxCell>
        <mxCell id="-V91luH7FTuImWQMiuqp-33" value="&lt;font data-font-src=&quot;https://fonts.googleapis.com/css?family=Open+Sans&quot; face=&quot;Open Sans&quot; style=&quot;font-size: 15px;&quot;&gt;pincode&lt;/font&gt;" style="ellipse;whiteSpace=wrap;html=1;fontFamily=Tahoma;fontSize=20;fontStyle=0" vertex="1" parent="1">
          <mxGeometry x="-70" y="-130" width="100" height="40" as="geometry" />
        </mxCell>
        <mxCell id="-V91luH7FTuImWQMiuqp-34" value="&lt;font face=&quot;Open Sans&quot;&gt;&lt;span style=&quot;font-size: 15px;&quot;&gt;coordinates&lt;/span&gt;&lt;/font&gt;" style="ellipse;whiteSpace=wrap;html=1;fontFamily=Tahoma;fontSize=20;fontStyle=0" vertex="1" parent="1">
          <mxGeometry x="30" y="-80" width="100" height="40" as="geometry" />
        </mxCell>
        <mxCell id="-V91luH7FTuImWQMiuqp-35" style="edgeStyle=orthogonalEdgeStyle;rounded=0;orthogonalLoop=1;jettySize=auto;html=1;exitX=0.5;exitY=1;exitDx=0;exitDy=0;fontFamily=Open Sans;fontSource=https%3A%2F%2Ffonts.googleapis.com%2Fcss%3Ffamily%3DOpen%2BSans;fontSize=15;" edge="1" parent="1" source="-V91luH7FTuImWQMiuqp-34" target="-V91luH7FTuImWQMiuqp-34">
          <mxGeometry relative="1" as="geometry" />
        </mxCell>
        <mxCell id="-V91luH7FTuImWQMiuqp-52" style="edgeStyle=none;rounded=0;orthogonalLoop=1;jettySize=auto;html=1;exitX=0.5;exitY=1;exitDx=0;exitDy=0;entryX=0.75;entryY=0;entryDx=0;entryDy=0;fontFamily=Open Sans;fontSource=https%3A%2F%2Ffonts.googleapis.com%2Fcss%3Ffamily%3DOpen%2BSans;fontSize=15;startArrow=none;startFill=0;endArrow=none;endFill=0;" edge="1" parent="1" source="-V91luH7FTuImWQMiuqp-43" target="-V91luH7FTuImWQMiuqp-1">
          <mxGeometry relative="1" as="geometry" />
        </mxCell>
        <mxCell id="-V91luH7FTuImWQMiuqp-43" value="&lt;font data-font-src=&quot;https://fonts.googleapis.com/css?family=Open+Sans&quot; face=&quot;Open Sans&quot; style=&quot;font-size: 15px;&quot;&gt;show_id&lt;/font&gt;" style="ellipse;whiteSpace=wrap;html=1;fontFamily=Tahoma;fontSize=20;fontStyle=0" vertex="1" parent="1">
          <mxGeometry x="380" y="200" width="130" height="50" as="geometry" />
        </mxCell>
        <mxCell id="-V91luH7FTuImWQMiuqp-51" style="edgeStyle=none;rounded=0;orthogonalLoop=1;jettySize=auto;html=1;exitX=0.5;exitY=1;exitDx=0;exitDy=0;entryX=1;entryY=0.25;entryDx=0;entryDy=0;fontFamily=Open Sans;fontSource=https%3A%2F%2Ffonts.googleapis.com%2Fcss%3Ffamily%3DOpen%2BSans;fontSize=15;startArrow=none;startFill=0;endArrow=none;endFill=0;" edge="1" parent="1" source="-V91luH7FTuImWQMiuqp-44" target="-V91luH7FTuImWQMiuqp-1">
          <mxGeometry relative="1" as="geometry" />
        </mxCell>
        <mxCell id="-V91luH7FTuImWQMiuqp-44" value="&lt;font data-font-src=&quot;https://fonts.googleapis.com/css?family=Open+Sans&quot; face=&quot;Open Sans&quot; style=&quot;font-size: 15px;&quot;&gt;username&lt;/font&gt;" style="ellipse;whiteSpace=wrap;html=1;fontFamily=Tahoma;fontSize=20;fontStyle=0" vertex="1" parent="1">
          <mxGeometry x="570" y="240" width="130" height="50" as="geometry" />
        </mxCell>
        <mxCell id="-V91luH7FTuImWQMiuqp-50" style="edgeStyle=none;rounded=0;orthogonalLoop=1;jettySize=auto;html=1;exitX=0.5;exitY=0;exitDx=0;exitDy=0;entryX=0.75;entryY=1;entryDx=0;entryDy=0;fontFamily=Open Sans;fontSource=https%3A%2F%2Ffonts.googleapis.com%2Fcss%3Ffamily%3DOpen%2BSans;fontSize=15;startArrow=none;startFill=0;endArrow=none;endFill=0;" edge="1" parent="1" source="-V91luH7FTuImWQMiuqp-45" target="-V91luH7FTuImWQMiuqp-2">
          <mxGeometry relative="1" as="geometry" />
        </mxCell>
        <mxCell id="-V91luH7FTuImWQMiuqp-45" value="&lt;font data-font-src=&quot;https://fonts.googleapis.com/css?family=Open+Sans&quot; face=&quot;Open Sans&quot; style=&quot;font-size: 15px;&quot;&gt;show_date&lt;/font&gt;" style="ellipse;whiteSpace=wrap;html=1;fontFamily=Tahoma;fontSize=20;fontStyle=0" vertex="1" parent="1">
          <mxGeometry x="545" y="410" width="130" height="50" as="geometry" />
        </mxCell>
        <mxCell id="-V91luH7FTuImWQMiuqp-49" style="edgeStyle=none;rounded=0;orthogonalLoop=1;jettySize=auto;html=1;exitX=0.5;exitY=0;exitDx=0;exitDy=0;fontFamily=Open Sans;fontSource=https%3A%2F%2Ffonts.googleapis.com%2Fcss%3Ffamily%3DOpen%2BSans;fontSize=15;startArrow=none;startFill=0;endArrow=none;endFill=0;" edge="1" parent="1" source="-V91luH7FTuImWQMiuqp-46" target="-V91luH7FTuImWQMiuqp-2">
          <mxGeometry relative="1" as="geometry" />
        </mxCell>
        <mxCell id="-V91luH7FTuImWQMiuqp-53" style="edgeStyle=none;rounded=0;orthogonalLoop=1;jettySize=auto;html=1;exitX=1;exitY=0.5;exitDx=0;exitDy=0;entryX=0;entryY=0.75;entryDx=0;entryDy=0;fontFamily=Open Sans;fontSource=https%3A%2F%2Ffonts.googleapis.com%2Fcss%3Ffamily%3DOpen%2BSans;fontSize=15;startArrow=none;startFill=0;endArrow=none;endFill=0;" edge="1" parent="1" source="-V91luH7FTuImWQMiuqp-48" target="-V91luH7FTuImWQMiuqp-1">
          <mxGeometry relative="1" as="geometry" />
        </mxCell>
        <mxCell id="-V91luH7FTuImWQMiuqp-48" value="&lt;font data-font-src=&quot;https://fonts.googleapis.com/css?family=Open+Sans&quot; face=&quot;Open Sans&quot; style=&quot;font-size: 15px;&quot;&gt;issue_date&lt;/font&gt;" style="ellipse;whiteSpace=wrap;html=1;fontFamily=Tahoma;fontSize=20;fontStyle=0" vertex="1" parent="1">
          <mxGeometry x="220" y="330" width="130" height="50" as="geometry" />
        </mxCell>
        <mxCell id="-V91luH7FTuImWQMiuqp-56" style="edgeStyle=none;rounded=0;orthogonalLoop=1;jettySize=auto;html=1;entryX=0.5;entryY=0;entryDx=0;entryDy=0;fontFamily=Open Sans;fontSource=https%3A%2F%2Ffonts.googleapis.com%2Fcss%3Ffamily%3DOpen%2BSans;fontSize=15;startArrow=none;startFill=0;endArrow=none;endFill=0;" edge="1" parent="1" source="-V91luH7FTuImWQMiuqp-54" target="-V91luH7FTuImWQMiuqp-5">
          <mxGeometry relative="1" as="geometry" />
        </mxCell>
        <mxCell id="-V91luH7FTuImWQMiuqp-54" value="&lt;font data-font-src=&quot;https://fonts.googleapis.com/css?family=Open+Sans&quot; face=&quot;Open Sans&quot; style=&quot;font-size: 15px;&quot;&gt;admin_id&lt;/font&gt;" style="ellipse;whiteSpace=wrap;html=1;fontFamily=Tahoma;fontSize=20;fontStyle=4" vertex="1" parent="1">
          <mxGeometry x="-175" y="482.5" width="130" height="50" as="geometry" />
        </mxCell>
        <mxCell id="-V91luH7FTuImWQMiuqp-57" style="edgeStyle=none;rounded=0;orthogonalLoop=1;jettySize=auto;html=1;fontFamily=Open Sans;fontSource=https%3A%2F%2Ffonts.googleapis.com%2Fcss%3Ffamily%3DOpen%2BSans;fontSize=15;startArrow=none;startFill=0;endArrow=none;endFill=0;" edge="1" parent="1" source="-V91luH7FTuImWQMiuqp-55" target="-V91luH7FTuImWQMiuqp-5">
          <mxGeometry relative="1" as="geometry" />
        </mxCell>
        <mxCell id="-V91luH7FTuImWQMiuqp-55" value="&lt;font data-font-src=&quot;https://fonts.googleapis.com/css?family=Open+Sans&quot; face=&quot;Open Sans&quot; style=&quot;font-size: 15px;&quot;&gt;hashed_password&lt;/font&gt;" style="ellipse;whiteSpace=wrap;html=1;fontFamily=Tahoma;fontSize=20;fontStyle=0" vertex="1" parent="1">
          <mxGeometry x="-280" y="575" width="150" height="50" as="geometry" />
        </mxCell>
        <mxCell id="-V91luH7FTuImWQMiuqp-78" style="edgeStyle=none;rounded=0;orthogonalLoop=1;jettySize=auto;html=1;exitX=0.5;exitY=1;exitDx=0;exitDy=0;entryX=0.601;entryY=0.053;entryDx=0;entryDy=0;entryPerimeter=0;fontFamily=Open Sans;fontSource=https%3A%2F%2Ffonts.googleapis.com%2Fcss%3Ffamily%3DOpen%2BSans;fontSize=15;startArrow=none;startFill=0;endArrow=none;endFill=0;" edge="1" parent="1" source="-V91luH7FTuImWQMiuqp-58" target="-V91luH7FTuImWQMiuqp-61">
          <mxGeometry relative="1" as="geometry" />
        </mxCell>
        <mxCell id="-V91luH7FTuImWQMiuqp-79" style="edgeStyle=none;rounded=0;orthogonalLoop=1;jettySize=auto;html=1;exitX=0;exitY=1;exitDx=0;exitDy=0;entryX=1;entryY=0;entryDx=0;entryDy=0;fontFamily=Open Sans;fontSource=https%3A%2F%2Ffonts.googleapis.com%2Fcss%3Ffamily%3DOpen%2BSans;fontSize=15;startArrow=none;startFill=0;endArrow=none;endFill=0;" edge="1" parent="1" source="-V91luH7FTuImWQMiuqp-58" target="-V91luH7FTuImWQMiuqp-60">
          <mxGeometry relative="1" as="geometry" />
        </mxCell>
        <mxCell id="-V91luH7FTuImWQMiuqp-80" style="edgeStyle=none;rounded=0;orthogonalLoop=1;jettySize=auto;html=1;exitX=0;exitY=0.5;exitDx=0;exitDy=0;fontFamily=Open Sans;fontSource=https%3A%2F%2Ffonts.googleapis.com%2Fcss%3Ffamily%3DOpen%2BSans;fontSize=15;startArrow=none;startFill=0;endArrow=none;endFill=0;" edge="1" parent="1" source="-V91luH7FTuImWQMiuqp-58" target="-V91luH7FTuImWQMiuqp-59">
          <mxGeometry relative="1" as="geometry" />
        </mxCell>
        <mxCell id="-V91luH7FTuImWQMiuqp-58" value="&lt;font data-font-src=&quot;https://fonts.googleapis.com/css?family=Open+Sans&quot; face=&quot;Open Sans&quot; style=&quot;font-size: 15px;&quot;&gt;location&lt;/font&gt;" style="ellipse;whiteSpace=wrap;html=1;fontFamily=Tahoma;fontSize=20;fontStyle=0" vertex="1" parent="1">
          <mxGeometry x="220" y="665" width="130" height="50" as="geometry" />
        </mxCell>
        <mxCell id="-V91luH7FTuImWQMiuqp-59" value="&lt;font data-font-src=&quot;https://fonts.googleapis.com/css?family=Open+Sans&quot; face=&quot;Open Sans&quot; style=&quot;font-size: 15px;&quot;&gt;city&lt;/font&gt;" style="ellipse;whiteSpace=wrap;html=1;fontFamily=Tahoma;fontSize=20;fontStyle=0" vertex="1" parent="1">
          <mxGeometry x="70" y="665" width="100" height="40" as="geometry" />
        </mxCell>
        <mxCell id="-V91luH7FTuImWQMiuqp-60" value="&lt;font data-font-src=&quot;https://fonts.googleapis.com/css?family=Open+Sans&quot; face=&quot;Open Sans&quot; style=&quot;font-size: 15px;&quot;&gt;pincode&lt;/font&gt;" style="ellipse;whiteSpace=wrap;html=1;fontFamily=Tahoma;fontSize=20;fontStyle=0" vertex="1" parent="1">
          <mxGeometry x="120" y="720" width="100" height="40" as="geometry" />
        </mxCell>
        <mxCell id="-V91luH7FTuImWQMiuqp-61" value="&lt;font face=&quot;Open Sans&quot;&gt;&lt;span style=&quot;font-size: 15px;&quot;&gt;coordinates&lt;/span&gt;&lt;/font&gt;" style="ellipse;whiteSpace=wrap;html=1;fontFamily=Tahoma;fontSize=20;fontStyle=0" vertex="1" parent="1">
          <mxGeometry x="210" y="760" width="100" height="40" as="geometry" />
        </mxCell>
        <mxCell id="-V91luH7FTuImWQMiuqp-65" value="&lt;font data-font-src=&quot;https://fonts.googleapis.com/css?family=Open+Sans&quot; face=&quot;Open Sans&quot; style=&quot;font-size: 15px;&quot;&gt;t_id&lt;/font&gt;" style="ellipse;whiteSpace=wrap;html=1;fontFamily=Tahoma;fontSize=20;fontStyle=0" vertex="1" parent="1">
          <mxGeometry x="330" y="800" width="130" height="50" as="geometry" />
        </mxCell>
        <mxCell id="-V91luH7FTuImWQMiuqp-66" value="&lt;font data-font-src=&quot;https://fonts.googleapis.com/css?family=Open+Sans&quot; face=&quot;Open Sans&quot; style=&quot;font-size: 15px;&quot;&gt;ratings&lt;/font&gt;" style="ellipse;whiteSpace=wrap;html=1;fontFamily=Tahoma;fontSize=20;fontStyle=0" vertex="1" parent="1">
          <mxGeometry x="490" y="790" width="130" height="50" as="geometry" />
        </mxCell>
        <mxCell id="-V91luH7FTuImWQMiuqp-69" value="" style="group" vertex="1" connectable="0" parent="1">
          <mxGeometry x="360" y="417.5" width="150" height="65" as="geometry" />
        </mxCell>
        <mxCell id="-V91luH7FTuImWQMiuqp-47" value="&lt;font data-font-src=&quot;https://fonts.googleapis.com/css?family=Open+Sans&quot; face=&quot;Open Sans&quot; style=&quot;font-size: 15px;&quot;&gt;seat_no&lt;/font&gt;" style="ellipse;whiteSpace=wrap;html=1;fontFamily=Tahoma;fontSize=20;fontStyle=0;container=1;" vertex="1" parent="-V91luH7FTuImWQMiuqp-69">
          <mxGeometry width="150" height="65" as="geometry" />
        </mxCell>
        <mxCell id="-V91luH7FTuImWQMiuqp-46" value="&lt;font data-font-src=&quot;https://fonts.googleapis.com/css?family=Open+Sans&quot; face=&quot;Open Sans&quot; style=&quot;font-size: 15px;&quot;&gt;seat_no&lt;/font&gt;" style="ellipse;whiteSpace=wrap;html=1;fontFamily=Tahoma;fontSize=20;fontStyle=0" vertex="1" parent="-V91luH7FTuImWQMiuqp-69">
          <mxGeometry x="4" y="4.5" width="143" height="55" as="geometry" />
        </mxCell>
        <mxCell id="-V91luH7FTuImWQMiuqp-70" value="" style="group" vertex="1" connectable="0" parent="1">
          <mxGeometry x="620" y="720" width="150" height="65" as="geometry" />
        </mxCell>
        <mxCell id="-V91luH7FTuImWQMiuqp-71" value="&lt;font data-font-src=&quot;https://fonts.googleapis.com/css?family=Open+Sans&quot; face=&quot;Open Sans&quot; style=&quot;font-size: 15px;&quot;&gt;seat_no&lt;/font&gt;" style="ellipse;whiteSpace=wrap;html=1;fontFamily=Tahoma;fontSize=20;fontStyle=0;container=1;" vertex="1" parent="-V91luH7FTuImWQMiuqp-70">
          <mxGeometry width="150" height="65" as="geometry" />
        </mxCell>
        <mxCell id="-V91luH7FTuImWQMiuqp-72" value="&lt;font data-font-src=&quot;https://fonts.googleapis.com/css?family=Open+Sans&quot; face=&quot;Open Sans&quot; style=&quot;font-size: 15px;&quot;&gt;reviews&lt;/font&gt;" style="ellipse;whiteSpace=wrap;html=1;fontFamily=Tahoma;fontSize=20;fontStyle=0" vertex="1" parent="-V91luH7FTuImWQMiuqp-70">
          <mxGeometry x="4" y="4.5" width="143" height="55" as="geometry" />
        </mxCell>
      </root>
    </mxGraphModel>
  </diagram>
</mxfile>
